<svg width="24" height="35" viewBox="0 0 24 35" fill="none" xmlns="http://www.w3.org/2000/svg">
<path d="M12 28.9555L16.59 24L18 25.5223L12 32L6 25.5223L7.41 24L12 28.9555Z" fill="#F2F2F2"/>
<path fill-rule="evenodd" clip-rule="evenodd" d="M12 0.0351562C16.4 0.0351562 19.96 3.57516 20 7.96516V13.9652C20 18.3852 16.42 21.9652 12 21.9652C7.58 21.9652 4 18.3852 4 13.9652V7.96516C4.04 3.57516 7.6 0.0351562 12 0.0351562ZM13 7.96516H18C17.96 5.02516 15.81 2.59516 13 2.12516V7.96516ZM11 2.12516V7.96516H6C6.04 5.02516 8.19 2.59516 11 2.12516ZM12 19.9652C15.31 19.9652 18 17.2752 18 13.9652V9.96516H6V13.9652C6 17.2752 8.69 19.9652 12 19.9652Z" fill="#F2F2F2"/>
</svg>
